<svg width="32" height="32" viewBox="0 0 32 32" fill="none" xmlns="http://www.w3.org/2000/svg">
<mask id="mask0_203_595" style="mask-type:alpha" maskUnits="userSpaceOnUse" x="0" y="0" width="32" height="32">
<rect width="32" height="32" fill="#D9D9D9"/>
</mask>
<g mask="url(#mask0_203_595)">
<path d="M7.53317 23.2666C8.84428 22.3852 10.1887 21.7092 11.5665 21.2389C12.9443 20.7685 14.4221 20.5333 15.9998 20.5333C17.5776 20.5333 19.0591 20.7685 20.4443 21.2389C21.8295 21.7092 23.1776 22.3852 24.4887 23.2666C25.3998 22.1629 26.0647 21.0111 26.4832 19.8111C26.9017 18.6111 27.111 17.3407 27.111 16C27.111 12.8666 26.0424 10.2314 23.9054 8.09439C21.7684 5.95735 19.1332 4.88883 15.9998 4.88883C12.8665 4.88883 10.2313 5.95735 8.09427 8.09439C5.95723 10.2314 4.8887 12.8666 4.8887 16C4.8887 17.3407 5.10167 18.6111 5.5276 19.8111C5.95354 21.0111 6.62206 22.1629 7.53317 23.2666ZM15.9957 17.1111C14.7022 17.1111 13.6128 16.6671 12.7276 15.7792C11.8424 14.8912 11.3998 13.8005 11.3998 12.5069C11.3998 11.2134 11.8438 10.124 12.7317 9.23886C13.6197 8.35366 14.7104 7.91106 16.004 7.91106C17.2975 7.91106 18.3869 8.35504 19.2721 9.24299C20.1572 10.1309 20.5998 11.2217 20.5998 12.5152C20.5998 13.8087 20.1559 14.8981 19.2679 15.7833C18.38 16.6685 17.2892 17.1111 15.9957 17.1111ZM15.9908 29.3333C14.1442 29.3333 12.4089 28.9833 10.7847 28.2833C9.1606 27.5833 7.74783 26.6296 6.5464 25.4222C5.34498 24.2148 4.39798 22.8011 3.7054 21.1813C3.0128 19.5614 2.6665 17.8306 2.6665 15.9889C2.6665 14.1471 3.0165 12.4163 3.7165 10.7964C4.4165 9.17656 5.3702 7.76663 6.5776 6.56663C7.78503 5.36663 9.19866 4.41663 10.8185 3.71663C12.4384 3.01663 14.1692 2.66663 16.0109 2.66663C17.8527 2.66663 19.5835 3.01663 21.2034 3.71663C22.8232 4.41663 24.2332 5.36663 25.4332 6.56663C26.6332 7.76663 27.5832 9.17774 28.2832 10.8C28.9832 12.4222 29.3332 14.1535 29.3332 15.9941C29.3332 17.8345 28.9832 19.5642 28.2832 21.1829C27.5832 22.8017 26.6332 24.2148 25.4332 25.4222C24.2332 26.6296 22.8211 27.5833 21.197 28.2833C19.5728 28.9833 17.8375 29.3333 15.9908 29.3333Z" fill="#F24405"/>
</g>
</svg>
