<svg width="24" height="24" viewBox="0 0 24 24" fill="none" xmlns="http://www.w3.org/2000/svg">
<mask id="mask0_43_540" style="mask-type:alpha" maskUnits="userSpaceOnUse" x="0" y="0" width="24" height="24">
<rect width="24" height="24" fill="#D9D9D9"/>
</mask>
<g mask="url(#mask0_43_540)">
<path d="M9.99402 11.6222L17.2484 18.8766C17.5223 19.1505 17.6561 19.4741 17.6497 19.8472C17.6434 20.2204 17.5033 20.544 17.2294 20.8179C16.9554 21.0918 16.6309 21.2288 16.2557 21.2288C15.8805 21.2288 15.556 21.0918 15.2821 20.8179L7.6777 13.2385C7.4498 13.0106 7.27988 12.7557 7.16793 12.4739C7.05598 12.192 7 11.9081 7 11.6222C7 11.3364 7.05598 11.0525 7.16793 10.7706C7.27988 10.4887 7.4498 10.2338 7.6777 10.0059L15.2821 2.40159C15.556 2.12767 15.8837 1.99388 16.2652 2.00021C16.6467 2.00656 16.9745 2.1467 17.2484 2.42061C17.5223 2.69453 17.6592 3.01907 17.6592 3.39424C17.6592 3.76942 17.5223 4.09397 17.2484 4.36789L9.99402 11.6222Z" fill="black"/>
</g>
</svg>
