<svg width="52" height="52" viewBox="0 0 52 52" fill="none" xmlns="http://www.w3.org/2000/svg">
<mask id="mask0_30_409" style="mask-type:alpha" maskUnits="userSpaceOnUse" x="0" y="0" width="52" height="52">
<rect width="52" height="52" fill="#D9D9D9"/>
</mask>
<g mask="url(#mask0_30_409)">
<path d="M26.0002 29.575L15.2752 40.3C14.7697 40.8056 14.1738 41.0583 13.4877 41.0583C12.8016 41.0583 12.2058 40.8056 11.7002 40.3C11.1947 39.7944 10.9419 39.1986 10.9419 38.5125C10.9419 37.8264 11.1947 37.2306 11.7002 36.725L22.4252 26L11.7002 15.275C11.1947 14.7694 10.9419 14.1736 10.9419 13.4875C10.9419 12.8014 11.1947 12.2056 11.7002 11.7C12.2058 11.1944 12.8016 10.9417 13.4877 10.9417C14.1738 10.9417 14.7697 11.1944 15.2752 11.7L26.0002 22.425L36.7252 11.7C37.2308 11.1944 37.8266 10.9417 38.5127 10.9417C39.1988 10.9417 39.7947 11.1944 40.3002 11.7C40.8058 12.2056 41.0586 12.8014 41.0586 13.4875C41.0586 14.1736 40.8058 14.7694 40.3002 15.275L29.5752 26L40.3002 36.725C40.8058 37.2306 41.0586 37.8264 41.0586 38.5125C41.0586 39.1986 40.8058 39.7944 40.3002 40.3C39.7947 40.8056 39.1988 41.0583 38.5127 41.0583C37.8266 41.0583 37.2308 40.8056 36.7252 40.3L26.0002 29.575Z" fill="#F24405"/>
</g>
</svg>
