<svg width="32" height="32" viewBox="0 0 32 32" fill="none" xmlns="http://www.w3.org/2000/svg">
<mask id="mask0_52_721" style="mask-type:alpha" maskUnits="userSpaceOnUse" x="0" y="0" width="32" height="32">
<rect width="32" height="32" fill="#D9D9D9"/>
</mask>
<g mask="url(#mask0_52_721)">
<path d="M7.53366 23.2667C8.84477 22.3259 10.1929 21.5981 11.5781 21.0833C12.9633 20.5685 14.4374 20.3111 16.0003 20.3111C17.5633 20.3111 19.0411 20.5685 20.4337 21.0833C21.8263 21.5981 23.1781 22.3259 24.4892 23.2667C25.4003 22.1629 26.0651 21.0111 26.4837 19.8111C26.9022 18.6111 27.1115 17.3407 27.1115 16C27.1115 12.8667 26.0429 10.2315 23.9059 8.09442C21.7688 5.95738 19.1337 4.88886 16.0003 4.88886C12.867 4.88886 10.2318 5.95738 8.09476 8.09442C5.95771 10.2315 4.88919 12.8667 4.88919 16C4.88919 17.3407 5.10216 18.6111 5.52809 19.8111C5.95403 21.0111 6.62255 22.1629 7.53366 23.2667ZM15.9962 17.1111C14.7027 17.1111 13.6133 16.6671 12.7281 15.7792C11.8429 14.8913 11.4003 13.8005 11.4003 12.507C11.4003 11.2134 11.8443 10.1241 12.7322 9.23889C13.6202 8.35369 14.7109 7.91109 16.0045 7.91109C17.298 7.91109 18.3874 8.35507 19.2726 9.24302C20.1577 10.131 20.6003 11.2217 20.6003 12.5152C20.6003 13.8088 20.1564 14.8981 19.2684 15.7833C18.3805 16.6685 17.2897 17.1111 15.9962 17.1111ZM16.0107 29.3333C14.1742 29.3333 12.4448 28.9833 10.8226 28.2833C9.20034 27.5833 7.78551 26.6296 6.57809 25.4222C5.37069 24.2148 4.41699 22.8017 3.71699 21.183C3.01699 19.5642 2.66699 17.8346 2.66699 15.9941C2.66699 14.1536 3.01699 12.4259 3.71699 10.8111C4.41699 9.19629 5.37069 7.78518 6.57809 6.57776C7.78551 5.37036 9.1986 4.41666 10.8174 3.71666C12.4361 3.01666 14.1657 2.66666 16.0062 2.66666C17.8467 2.66666 19.5744 3.01666 21.1892 3.71666C22.804 4.41666 24.2151 5.37036 25.4226 6.57776C26.63 7.78518 27.5837 9.19653 28.2837 10.8118C28.9837 12.4271 29.3337 14.153 29.3337 15.9896C29.3337 17.8261 28.9837 19.5555 28.2837 21.1778C27.5837 22.8 26.63 24.2148 25.4226 25.4222C24.2151 26.6296 22.8038 27.5833 21.1885 28.2833C19.5732 28.9833 17.8473 29.3333 16.0107 29.3333ZM16.0003 27.1111C17.2077 27.1111 18.3744 26.9352 19.5003 26.5833C20.6263 26.2315 21.7114 25.6518 22.7559 24.8444C21.7114 24.0963 20.6226 23.5241 19.4892 23.1278C18.3559 22.7315 17.1929 22.5333 16.0003 22.5333C14.8077 22.5333 13.6448 22.7315 12.5114 23.1278C11.3781 23.5241 10.2892 24.0963 9.24476 24.8444C10.2892 25.6518 11.3744 26.2315 12.5003 26.5833C13.6263 26.9352 14.7929 27.1111 16.0003 27.1111ZM16.0003 14.8889C16.6966 14.8889 17.267 14.6667 17.7115 14.2222C18.1559 13.7778 18.3781 13.2074 18.3781 12.5111C18.3781 11.8148 18.1559 11.2444 17.7115 10.8C17.267 10.3555 16.6966 10.1333 16.0003 10.1333C15.304 10.1333 14.7337 10.3555 14.2892 10.8C13.8447 11.2444 13.6225 11.8148 13.6225 12.5111C13.6225 13.2074 13.8447 13.7778 14.2892 14.2222C14.7337 14.6667 15.304 14.8889 16.0003 14.8889Z" fill="#1C1B1F"/>
</g>
</svg>
