<svg width="33" height="32" viewBox="0 0 33 32" fill="none" xmlns="http://www.w3.org/2000/svg">
<mask id="mask0_52_724" style="mask-type:alpha" maskUnits="userSpaceOnUse" x="0" y="0" width="33" height="32">
<rect x="0.5" width="32" height="32" fill="#D9D9D9"/>
</mask>
<g mask="url(#mask0_52_724)">
<path d="M13.1222 21.1333C10.7124 21.1333 8.67295 20.2981 7.00377 18.6278C5.33459 16.9574 4.5 14.9333 4.5 12.5556C4.5 10.1778 5.33519 8.15371 7.00557 6.48333C8.67592 4.81296 10.7037 3.97777 13.0889 3.97777C15.4741 3.97777 17.4981 4.81296 19.1611 6.48333C20.8241 8.15371 21.6556 10.1789 21.6556 12.5589C21.6556 13.5196 21.5 14.4407 21.1889 15.3222C20.8778 16.2037 20.4259 17.0148 19.8333 17.7556L27.7 25.5778C27.9148 25.786 28.0222 26.051 28.0222 26.3728C28.0222 26.6947 27.9148 26.963 27.7 27.1778C27.4852 27.3926 27.2169 27.5 26.8951 27.5C26.5733 27.5 26.3082 27.3926 26.1 27.1778L18.2556 19.3333C17.5889 19.8963 16.8151 20.337 15.9342 20.6555C15.0534 20.9741 14.116 21.1333 13.1222 21.1333ZM13.1 18.9111C14.8593 18.9111 16.3546 18.2908 17.5861 17.05C18.8176 15.8093 19.4333 14.3111 19.4333 12.5556C19.4333 10.8 18.8176 9.30184 17.5861 8.0611C16.3546 6.82037 14.8593 6.2 13.1 6.2C11.3284 6.2 9.82253 6.82037 8.5824 8.0611C7.34227 9.30184 6.7222 10.8 6.7222 12.5556C6.7222 14.3111 7.34227 15.8093 8.5824 17.05C9.82253 18.2908 11.3284 18.9111 13.1 18.9111Z" fill="#1C1B1F"/>
</g>
</svg>
