<svg width="32" height="32" viewBox="0 0 32 32" fill="none" xmlns="http://www.w3.org/2000/svg">
<mask id="mask0_52_735" style="mask-type:alpha" maskUnits="userSpaceOnUse" x="0" y="0" width="32" height="32">
<rect width="32" height="32" fill="#D9D9D9"/>
</mask>
<g mask="url(#mask0_52_735)">
<path d="M10.3554 14.6C10.7331 14.6 11.0498 14.4722 11.3054 14.2167C11.5609 13.9611 11.6887 13.6444 11.6887 13.2667C11.6887 12.8889 11.5609 12.5722 11.3054 12.3167C11.0498 12.0611 10.7331 11.9333 10.3554 11.9333C9.97759 11.9333 9.66093 12.0611 9.40537 12.3167C9.14982 12.5722 9.02204 12.8889 9.02204 13.2667C9.02204 13.6444 9.14982 13.9611 9.40537 14.2167C9.66093 14.4722 9.97759 14.6 10.3554 14.6ZM16.0665 14.6C16.4443 14.6 16.7609 14.4722 17.0165 14.2167C17.2721 13.9611 17.3998 13.6444 17.3998 13.2667C17.3998 12.8889 17.2721 12.5722 17.0165 12.3167C16.7609 12.0611 16.4443 11.9333 16.0665 11.9333C15.6887 11.9333 15.3721 12.0611 15.1165 12.3167C14.8609 12.5722 14.7332 12.8889 14.7332 13.2667C14.7332 13.6444 14.8609 13.9611 15.1165 14.2167C15.3721 14.4722 15.6887 14.6 16.0665 14.6ZM21.6221 14.6C21.9998 14.6 22.3165 14.4722 22.5721 14.2167C22.8276 13.9611 22.9554 13.6444 22.9554 13.2667C22.9554 12.8889 22.8276 12.5722 22.5721 12.3167C22.3165 12.0611 21.9998 11.9333 21.6221 11.9333C21.2443 11.9333 20.9276 12.0611 20.6721 12.3167C20.4165 12.5722 20.2887 12.8889 20.2887 13.2667C20.2887 13.6444 20.4165 13.9611 20.6721 14.2167C20.9276 14.4722 21.2443 14.6 21.6221 14.6ZM7.99984 24L4.55537 27.4445C4.20724 27.7926 3.80539 27.8711 3.34984 27.6799C2.89428 27.4887 2.6665 27.1472 2.6665 26.6556V4.88887C2.6665 4.28887 2.88687 3.76851 3.3276 3.32777C3.76834 2.88704 4.2887 2.66667 4.8887 2.66667H27.111C27.711 2.66667 28.2313 2.88704 28.6721 3.32777C29.1128 3.76851 29.3332 4.28887 29.3332 4.88887V21.7778C29.3332 22.3778 29.1128 22.8982 28.6721 23.3389C28.2313 23.7796 27.711 24 27.111 24H7.99984Z" fill="#F24405"/>
</g>
</svg>
