<svg width="32" height="32" viewBox="0 0 32 32" fill="none" xmlns="http://www.w3.org/2000/svg">
<mask id="mask0_203_601" style="mask-type:alpha" maskUnits="userSpaceOnUse" x="0" y="0" width="32" height="32">
<rect width="32" height="32" fill="#D9D9D9"/>
</mask>
<g mask="url(#mask0_203_601)">
<path d="M10.3559 14.6C10.7336 14.6 11.0503 14.4722 11.3059 14.2166C11.5614 13.9611 11.6892 13.6444 11.6892 13.2666C11.6892 12.8888 11.5614 12.5722 11.3059 12.3166C11.0503 12.0611 10.7336 11.9333 10.3559 11.9333C9.97808 11.9333 9.66141 12.0611 9.40586 12.3166C9.1503 12.5722 9.02253 12.8888 9.02253 13.2666C9.02253 13.6444 9.1503 13.9611 9.40586 14.2166C9.66141 14.4722 9.97808 14.6 10.3559 14.6ZM16.067 14.6C16.4448 14.6 16.7614 14.4722 17.017 14.2166C17.2725 13.9611 17.4003 13.6444 17.4003 13.2666C17.4003 12.8888 17.2725 12.5722 17.017 12.3166C16.7614 12.0611 16.4448 11.9333 16.067 11.9333C15.6892 11.9333 15.3725 12.0611 15.117 12.3166C14.8614 12.5722 14.7337 12.8888 14.7337 13.2666C14.7337 13.6444 14.8614 13.9611 15.117 14.2166C15.3725 14.4722 15.6892 14.6 16.067 14.6ZM21.6226 14.6C22.0003 14.6 22.317 14.4722 22.5726 14.2166C22.8281 13.9611 22.9559 13.6444 22.9559 13.2666C22.9559 12.8888 22.8281 12.5722 22.5726 12.3166C22.317 12.0611 22.0003 11.9333 21.6226 11.9333C21.2448 11.9333 20.9281 12.0611 20.6726 12.3166C20.417 12.5722 20.2892 12.8888 20.2892 13.2666C20.2892 13.6444 20.417 13.9611 20.6726 14.2166C20.9281 14.4722 21.2448 14.6 21.6226 14.6ZM8.00033 24L4.55586 27.4444C4.20773 27.7926 3.80588 27.871 3.35033 27.6798C2.89477 27.4886 2.66699 27.1472 2.66699 26.6555V4.88883C2.66699 4.28883 2.88736 3.76846 3.32809 3.32773C3.76883 2.88699 4.28919 2.66663 4.88919 2.66663H27.1115C27.7115 2.66663 28.2318 2.88699 28.6726 3.32773C29.1133 3.76846 29.3337 4.28883 29.3337 4.88883V21.7778C29.3337 22.3778 29.1133 22.8981 28.6726 23.3389C28.2318 23.7796 27.7115 24 27.1115 24H8.00033ZM7.04476 21.7778H27.1115V4.88883H4.88919V24.0556L7.04476 21.7778Z" fill="#1C1B1F"/>
</g>
</svg>
