<svg width="52" height="52" viewBox="0 0 52 52" fill="none" xmlns="http://www.w3.org/2000/svg">
<g clip-path="url(#clip0_152_437)">
<path d="M42.1995 4.69191C34.0624 2.18564 28.0099 7.08761 26.0007 9.85187C24.744 8.53242 23.5123 7.50575 22.3266 6.71151C15.5185 2.15108 2.68253 5.53976 0.485966 13.4342C-2.33672 23.579 6.48918 30.9114 14.0703 38.2197C18.9384 42.9127 23.2696 47.0659 23.9288 47.6302C25.1343 48.6622 27.1936 48.0602 28.0726 47.6302C31.7623 44.0203 38.9161 37.0003 44.282 31.6771C47.2866 28.6964 50.1978 25.4185 51.3617 21.3494C54.6413 9.88442 44.3208 5.49016 42.1995 4.69191Z" fill="#F2F2F2"/>
</g>
<defs>
<clipPath id="clip0_152_437">
<rect width="52" height="52" fill="white"/>
</clipPath>
</defs>
</svg>
