<svg width="209" height="137" viewBox="0 0 209 137" fill="none" xmlns="http://www.w3.org/2000/svg">
<path fill-rule="evenodd" clip-rule="evenodd" d="M101.377 1.96863L81.6304 10.3779C76.1814 12.6985 73.2403 18.6475 74.705 24.3862L74.9702 25.425C77.993 37.268 84.449 47.9534 93.5266 56.1381L96.4608 58.7837C101.027 62.9007 107.966 62.9007 112.532 58.7837L115.713 55.9159C124.636 47.87 131.03 37.4045 134.116 25.7922L134.461 24.4944C135.997 18.7123 133.04 12.6817 127.527 10.3562L107.621 1.95807C105.624 1.11563 103.371 1.11944 101.377 1.96863ZM104.603 24.2815C105.691 22.7513 108.969 20.0378 113.375 21.4252C114.319 21.7882 118.261 23.4949 118.652 27.6119C119.041 31.701 115.84 35.0368 112.949 38.0495C112.762 38.244 112.577 38.4371 112.394 38.6289C110.328 40.7952 108.191 43.0286 106.74 44.48C105.727 45.4928 104.374 46.2742 102.26 44.16C102.175 44.0752 101.985 43.8847 101.711 43.6101C100.901 42.7991 99.359 41.2543 97.6329 39.529C93.8754 35.7732 89.3155 31.2107 90.8261 26.1172C90.9304 25.7657 91.0638 25.4211 91.23 25.0872C93.1229 21.2846 98.7871 20.0883 102.364 22.3786C103.082 22.8382 103.834 23.4565 104.603 24.2815Z" fill="#F2F2F2"/>
<path d="M13.968 118.72C11.808 118.72 9.992 118.384 8.52 117.712C7.064 117.04 5.864 116.128 4.92 114.976L2.328 118.48H2.16V108.64H2.328C2.6 110.048 3.016 111.352 3.576 112.552C4.136 113.752 4.864 114.8 5.76 115.696C6.672 116.576 7.768 117.264 9.048 117.76C10.328 118.256 11.84 118.504 13.584 118.504C15.28 118.504 16.76 118.2 18.024 117.592C19.304 116.984 20.304 116.088 21.024 114.904C21.744 113.72 22.104 112.264 22.104 110.536C22.104 109.128 21.752 107.936 21.048 106.96C20.344 105.984 19.416 105.136 18.264 104.416C17.112 103.696 15.84 103.032 14.448 102.424C13.072 101.8 11.688 101.152 10.296 100.48C8.92 99.808 7.656 99.032 6.504 98.152C5.368 97.256 4.448 96.184 3.744 94.936C3.04 93.688 2.688 92.176 2.688 90.4C2.688 88.64 3.144 87.096 4.056 85.768C4.968 84.424 6.176 83.384 7.68 82.648C9.184 81.896 10.832 81.52 12.624 81.52C14.256 81.52 15.728 81.776 17.04 82.288C18.352 82.8 19.472 83.6 20.4 84.688L22.968 81.52H23.112V91.36H22.944C22.624 89.152 22.008 87.344 21.096 85.936C20.2 84.528 19.064 83.488 17.688 82.816C16.328 82.128 14.8 81.784 13.104 81.784C10.8 81.784 9.048 82.36 7.848 83.512C6.648 84.648 6.048 86.16 6.048 88.048C6.048 89.312 6.392 90.392 7.08 91.288C7.768 92.168 8.672 92.952 9.792 93.64C10.912 94.312 12.144 94.952 13.488 95.56C14.848 96.168 16.2 96.832 17.544 97.552C18.904 98.256 20.144 99.088 21.264 100.048C22.384 101.008 23.288 102.16 23.976 103.504C24.664 104.848 25.008 106.48 25.008 108.4C25.008 110.48 24.56 112.296 23.664 113.848C22.768 115.384 21.488 116.584 19.824 117.448C18.176 118.296 16.224 118.72 13.968 118.72ZM46.9714 118.48C46.2194 118.48 45.5074 118.376 44.8354 118.168C44.1794 117.96 43.6354 117.56 43.2034 116.968C42.7874 116.376 42.5794 115.52 42.5794 114.4V103.384C42.5794 102.232 42.4914 101.072 42.3154 99.904C42.1554 98.736 41.7714 97.768 41.1634 97C40.5714 96.232 39.6354 95.848 38.3554 95.848C37.4754 95.848 36.5954 95.96 35.7154 96.184C34.8514 96.392 34.0594 96.696 33.3394 97.096C32.6194 97.496 32.0354 97.976 31.5874 98.536C31.1554 99.096 30.9394 99.728 30.9394 100.432H30.7954C30.7954 99.616 31.0594 98.976 31.5874 98.512C32.1314 98.032 32.7234 97.792 33.3634 97.792C34.0514 97.792 34.6754 98.016 35.2354 98.464C35.8114 98.896 36.0994 99.52 36.0994 100.336C36.0994 101.296 35.8034 101.992 35.2114 102.424C34.6354 102.856 34.0194 103.072 33.3634 103.072C32.6274 103.072 32.0034 102.848 31.4914 102.4C30.9954 101.952 30.7474 101.296 30.7474 100.432C30.7474 99.68 30.9794 99.008 31.4434 98.416C31.9234 97.808 32.5634 97.296 33.3634 96.88C34.1794 96.448 35.0994 96.12 36.1234 95.896C37.1474 95.656 38.2034 95.536 39.2914 95.536C41.4994 95.536 43.1474 95.92 44.2354 96.688C45.3234 97.456 46.0354 98.44 46.3714 99.64C46.7234 100.84 46.8994 102.088 46.8994 103.384V115.768C46.8994 116.328 47.0114 116.824 47.2354 117.256C47.4594 117.672 47.9154 117.88 48.6034 117.88C49.1474 117.88 49.7474 117.616 50.4034 117.088C51.0754 116.56 51.6034 115.856 51.9874 114.976L52.1074 115.096C51.6914 116.088 51.0274 116.904 50.1154 117.544C49.2034 118.168 48.1554 118.48 46.9714 118.48ZM35.9074 118.48C33.8274 118.48 32.1634 117.952 30.9154 116.896C29.6834 115.824 29.0674 114.376 29.0674 112.552C29.0674 110.408 29.9634 108.76 31.7554 107.608C33.5634 106.456 36.1714 105.88 39.5794 105.88H44.8114V106.048H39.5794C38.1714 106.048 37.0594 106.392 36.2434 107.08C35.4434 107.768 34.8674 108.6 34.5154 109.576C34.1634 110.536 33.9874 111.456 33.9874 112.336C33.9874 113.136 34.0834 113.968 34.2754 114.832C34.4834 115.68 34.8274 116.4 35.3074 116.992C35.7874 117.584 36.4434 117.88 37.2754 117.88C38.2354 117.88 39.1154 117.592 39.9154 117.016C40.7314 116.424 41.3794 115.504 41.8594 114.256C42.3394 112.992 42.5794 111.352 42.5794 109.336H42.7234C42.7234 111.16 42.4914 112.76 42.0274 114.136C41.5794 115.512 40.8514 116.584 39.8434 117.352C38.8514 118.104 37.5394 118.48 35.9074 118.48ZM57.1924 118V93.448C57.1924 91.352 57.5444 89.4 58.2484 87.592C58.9684 85.768 60.0244 84.304 61.4164 83.2C62.8244 82.08 64.5684 81.52 66.6484 81.52C67.9444 81.52 69.0244 81.76 69.8884 82.24C70.7684 82.72 71.4324 83.328 71.8804 84.064C72.3284 84.784 72.5524 85.52 72.5524 86.272C72.5524 87.248 72.2724 87.992 71.7124 88.504C71.1684 89 70.5284 89.248 69.7924 89.248C69.3924 89.248 68.9844 89.168 68.5684 89.008C68.1684 88.832 67.8244 88.552 67.5364 88.168C67.2644 87.784 67.1284 87.272 67.1284 86.632C67.1284 85.784 67.4244 85.128 68.0164 84.664C68.6084 84.2 69.2004 83.968 69.7924 83.968C70.2244 83.968 70.6484 84.064 71.0644 84.256C71.4804 84.432 71.8244 84.696 72.0964 85.048C72.3684 85.384 72.5044 85.792 72.5044 86.272H72.3604C72.3604 85.472 72.1284 84.728 71.6644 84.04C71.2164 83.336 70.5604 82.768 69.6964 82.336C68.8484 81.904 67.8324 81.688 66.6484 81.688C65.3684 81.688 64.3524 82.136 63.6004 83.032C62.8484 83.912 62.3124 85.136 61.9924 86.704C61.6724 88.256 61.5124 90.048 61.5124 92.08V118H57.1924ZM53.3284 118V117.832H66.8164V118H53.3284ZM53.3284 96.088V95.92H67.7764V96.088H53.3284ZM83.964 118.48C81.868 118.48 79.972 118.024 78.276 117.112C76.596 116.184 75.26 114.864 74.268 113.152C73.292 111.424 72.804 109.36 72.804 106.96C72.804 104.56 73.284 102.504 74.244 100.792C75.204 99.064 76.508 97.744 78.156 96.832C79.82 95.904 81.7 95.44 83.796 95.44C86.18 95.44 88.092 95.92 89.532 96.88C90.988 97.824 92.044 99.064 92.7 100.6C93.356 102.12 93.684 103.752 93.684 105.496H76.02V105.328H88.596C88.612 104.4 88.564 103.384 88.452 102.28C88.356 101.16 88.14 100.096 87.804 99.088C87.484 98.08 87.004 97.248 86.364 96.592C85.724 95.936 84.868 95.608 83.796 95.608C82.612 95.608 81.636 95.936 80.868 96.592C80.1 97.248 79.492 98.128 79.044 99.232C78.596 100.336 78.276 101.56 78.084 102.904C77.908 104.232 77.82 105.584 77.82 106.96C77.82 108.32 77.908 109.672 78.084 111.016C78.276 112.36 78.604 113.576 79.068 114.664C79.548 115.752 80.204 116.624 81.036 117.28C81.884 117.936 82.956 118.264 84.252 118.264C86.716 118.264 88.74 117.576 90.324 116.2C91.908 114.808 92.996 113.136 93.588 111.184H93.78C93.156 113.248 92.028 114.984 90.396 116.392C88.764 117.784 86.62 118.48 83.964 118.48ZM122.118 82C125.686 82 128.758 82.792 131.334 84.376C133.926 85.944 135.918 88.088 137.31 90.808C138.718 93.528 139.422 96.592 139.422 100C139.422 102.56 138.998 104.936 138.15 107.128C137.318 109.304 136.134 111.208 134.598 112.84C133.078 114.472 131.254 115.744 129.126 116.656C127.014 117.552 124.678 118 122.118 118H108.702V117.832H112.998V82.168H108.702V82H122.118ZM117.582 117.832H122.118C124.326 117.832 126.182 117.32 127.686 116.296C129.19 115.272 130.398 113.904 131.31 112.192C132.222 110.48 132.878 108.568 133.278 106.456C133.678 104.328 133.878 102.176 133.878 100C133.878 97.808 133.654 95.656 133.206 93.544C132.758 91.432 132.062 89.52 131.118 87.808C130.19 86.096 128.982 84.728 127.494 83.704C126.006 82.68 124.222 82.168 122.142 82.168H117.582V117.832ZM161.581 118.48C160.829 118.48 160.117 118.376 159.445 118.168C158.789 117.96 158.245 117.56 157.813 116.968C157.397 116.376 157.189 115.52 157.189 114.4V103.384C157.189 102.232 157.101 101.072 156.925 99.904C156.765 98.736 156.381 97.768 155.773 97C155.181 96.232 154.245 95.848 152.965 95.848C152.085 95.848 151.205 95.96 150.325 96.184C149.461 96.392 148.669 96.696 147.949 97.096C147.229 97.496 146.645 97.976 146.197 98.536C145.765 99.096 145.549 99.728 145.549 100.432H145.405C145.405 99.616 145.669 98.976 146.197 98.512C146.741 98.032 147.333 97.792 147.973 97.792C148.661 97.792 149.285 98.016 149.845 98.464C150.421 98.896 150.709 99.52 150.709 100.336C150.709 101.296 150.413 101.992 149.821 102.424C149.245 102.856 148.629 103.072 147.973 103.072C147.237 103.072 146.613 102.848 146.101 102.4C145.605 101.952 145.357 101.296 145.357 100.432C145.357 99.68 145.589 99.008 146.053 98.416C146.533 97.808 147.173 97.296 147.973 96.88C148.789 96.448 149.709 96.12 150.733 95.896C151.757 95.656 152.813 95.536 153.901 95.536C156.109 95.536 157.757 95.92 158.845 96.688C159.933 97.456 160.645 98.44 160.981 99.64C161.333 100.84 161.509 102.088 161.509 103.384V115.768C161.509 116.328 161.621 116.824 161.845 117.256C162.069 117.672 162.525 117.88 163.213 117.88C163.757 117.88 164.357 117.616 165.013 117.088C165.685 116.56 166.213 115.856 166.597 114.976L166.717 115.096C166.301 116.088 165.637 116.904 164.725 117.544C163.813 118.168 162.765 118.48 161.581 118.48ZM150.517 118.48C148.437 118.48 146.773 117.952 145.525 116.896C144.293 115.824 143.677 114.376 143.677 112.552C143.677 110.408 144.573 108.76 146.365 107.608C148.173 106.456 150.781 105.88 154.189 105.88H159.421V106.048H154.189C152.781 106.048 151.669 106.392 150.853 107.08C150.053 107.768 149.477 108.6 149.125 109.576C148.773 110.536 148.597 111.456 148.597 112.336C148.597 113.136 148.693 113.968 148.885 114.832C149.093 115.68 149.437 116.4 149.917 116.992C150.397 117.584 151.053 117.88 151.885 117.88C152.845 117.88 153.725 117.592 154.525 117.016C155.341 116.424 155.989 115.504 156.469 114.256C156.949 112.992 157.189 111.352 157.189 109.336H157.333C157.333 111.16 157.101 112.76 156.637 114.136C156.189 115.512 155.461 116.584 154.453 117.352C153.461 118.104 152.149 118.48 150.517 118.48ZM175.546 118.336C174.234 118.336 173.266 118.048 172.642 117.472C172.018 116.896 171.61 116.176 171.418 115.312C171.242 114.432 171.154 113.552 171.154 112.672V91.12C171.874 91.12 172.65 90.968 173.482 90.664C174.33 90.36 174.994 90.032 175.474 89.68V114.472C175.474 115.672 175.618 116.48 175.906 116.896C176.194 117.296 176.658 117.496 177.298 117.496C178.194 117.496 179.066 117.056 179.914 116.176C180.762 115.296 181.426 114.28 181.906 113.128L182.05 113.176C181.474 114.696 180.61 115.936 179.458 116.896C178.322 117.856 177.018 118.336 175.546 118.336ZM167.674 96.088V95.92H180.61V96.088H167.674ZM196.323 118.48C194.227 118.48 192.331 118.024 190.635 117.112C188.955 116.184 187.619 114.864 186.627 113.152C185.651 111.424 185.163 109.36 185.163 106.96C185.163 104.56 185.643 102.504 186.603 100.792C187.563 99.064 188.867 97.744 190.515 96.832C192.179 95.904 194.059 95.44 196.155 95.44C198.539 95.44 200.451 95.92 201.891 96.88C203.347 97.824 204.403 99.064 205.059 100.6C205.715 102.12 206.043 103.752 206.043 105.496H188.379V105.328H200.955C200.971 104.4 200.923 103.384 200.811 102.28C200.715 101.16 200.499 100.096 200.163 99.088C199.843 98.08 199.363 97.248 198.723 96.592C198.083 95.936 197.227 95.608 196.155 95.608C194.971 95.608 193.995 95.936 193.227 96.592C192.459 97.248 191.851 98.128 191.403 99.232C190.955 100.336 190.635 101.56 190.443 102.904C190.267 104.232 190.179 105.584 190.179 106.96C190.179 108.32 190.267 109.672 190.443 111.016C190.635 112.36 190.963 113.576 191.427 114.664C191.907 115.752 192.563 116.624 193.395 117.28C194.243 117.936 195.315 118.264 196.611 118.264C199.075 118.264 201.099 117.576 202.683 116.2C204.267 114.808 205.355 113.136 205.947 111.184H206.139C205.515 113.248 204.387 114.984 202.755 116.392C201.123 117.784 198.979 118.48 196.323 118.48Z" fill="white"/>
</svg>
