<svg width="217" height="61" viewBox="0 0 217 61" fill="none" xmlns="http://www.w3.org/2000/svg">
<path d="M44.872 15.864C44.264 16.248 43.512 16.44 42.616 16.44C42.008 16.44 41.416 16.344 40.84 16.152C40.296 15.96 39.816 15.736 39.4 15.48C39.016 15.192 38.712 14.92 38.488 14.664C38.264 14.408 38.184 14.216 38.248 14.088C38.952 13.768 39.72 13.272 40.552 12.6C41.416 11.928 42.216 11.192 42.952 10.392C43.688 9.56 44.296 8.728 44.776 7.896C45.288 7.032 45.544 6.232 45.544 5.496C45.544 4.888 45.368 4.376 45.016 3.96C44.696 3.544 44.12 3.272 43.288 3.144C43.032 3.08 42.76 3.048 42.472 3.048C42.184 3.048 41.896 3.048 41.608 3.048C40.456 3.048 39.192 3.176 37.816 3.432C36.44 3.656 35.064 4.008 33.688 4.488C32.312 4.936 30.984 5.496 29.704 6.168C28.424 6.84 27.304 7.624 26.344 8.52C25.416 9.416 24.696 10.424 24.184 11.544C23.672 12.632 23.496 13.832 23.656 15.144C23.752 16.04 23.976 16.92 24.328 17.784C24.712 18.616 25.16 19.432 25.672 20.232C26.216 21.032 26.808 21.816 27.448 22.584C28.088 23.32 28.728 24.024 29.368 24.696C30.168 25.56 30.952 26.44 31.72 27.336C32.488 28.232 33.16 29.16 33.736 30.12C34.312 31.048 34.76 32.008 35.08 33C35.432 33.992 35.56 35.016 35.464 36.072C35.272 37.736 34.568 39.432 33.352 41.16C32.168 42.888 30.632 44.44 28.744 45.816C26.888 47.224 24.776 48.36 22.408 49.224C20.04 50.088 17.56 50.472 14.968 50.376C13.56 50.28 12.04 50.008 10.408 49.56C8.808 49.112 7.304 48.472 5.896 47.64C4.52 46.84 3.352 45.848 2.392 44.664C1.432 43.448 0.92 42.04 0.856 40.44C0.792 38.776 1.192 37.16 2.056 35.592C2.952 34.024 4.552 32.44 6.856 30.84H6.808C7 30.68 7.432 30.68 8.104 30.84C8.808 30.968 9.544 31.176 10.312 31.464C11.08 31.752 11.752 32.072 12.328 32.424C12.904 32.776 13.16 33.048 13.096 33.24L11.992 33.864C11.32 34.248 10.632 34.648 9.928 35.064C9.224 35.448 8.6 35.912 8.056 36.456C7.512 37 7.064 37.624 6.712 38.328C6.36 39 6.184 39.816 6.184 40.776C6.184 42.152 6.472 43.272 7.048 44.136C7.624 44.968 8.36 45.624 9.256 46.104C10.152 46.584 11.144 46.904 12.232 47.064C13.352 47.224 14.456 47.304 15.544 47.304C17.432 47.304 19.16 47.032 20.728 46.488C22.296 45.976 23.64 45.24 24.76 44.28C25.912 43.32 26.792 42.152 27.4 40.776C28.04 39.4 28.36 37.864 28.36 36.168C28.36 35.24 28.184 34.376 27.832 33.576C27.512 32.744 27.096 31.96 26.584 31.224C26.072 30.456 25.48 29.72 24.808 29.016C24.136 28.28 23.464 27.56 22.792 26.856C22.024 26.056 21.256 25.256 20.488 24.456C19.752 23.656 19.112 22.84 18.568 22.008C18.024 21.176 17.608 20.328 17.32 19.464C17.032 18.568 16.936 17.64 17.032 16.68C17.192 15.176 17.688 13.72 18.52 12.312C19.384 10.872 20.472 9.544 21.784 8.328C23.128 7.08 24.648 5.96 26.344 4.968C28.072 3.976 29.88 3.144 31.768 2.472C33.656 1.768 35.576 1.256 37.528 0.935998C39.512 0.583999 41.432 0.455998 43.288 0.551997C44.376 0.615998 45.288 0.807999 46.024 1.128C46.792 1.416 47.4 1.816 47.848 2.328C48.328 2.808 48.664 3.368 48.856 4.008C49.08 4.648 49.192 5.32 49.192 6.024C49.192 6.856 49.064 7.736 48.808 8.664C48.584 9.592 48.264 10.504 47.848 11.4C47.464 12.264 47.016 13.096 46.504 13.896C46.024 14.664 45.528 15.32 45.016 15.864H44.872ZM61.09 27.384C61.09 27.608 60.946 27.784 60.658 27.912C60.402 28.04 60.114 28.12 59.794 28.152C59.474 28.152 59.186 28.088 58.93 27.96C58.674 27.832 58.546 27.64 58.546 27.384C58.546 27.256 58.53 27.144 58.498 27.048C58.466 26.92 58.45 26.792 58.45 26.664C58.418 26.312 58.37 25.928 58.306 25.512C58.242 25.064 58.13 24.664 57.97 24.312C57.81 23.928 57.57 23.608 57.25 23.352C56.962 23.096 56.578 22.952 56.098 22.92C55.266 22.888 54.45 23.08 53.65 23.496C52.882 23.88 52.13 24.408 51.394 25.08C50.658 25.752 49.97 26.52 49.33 27.384C48.69 28.248 48.098 29.16 47.554 30.12C47.042 31.048 46.594 31.992 46.21 32.952C45.826 33.88 45.522 34.744 45.298 35.544C45.202 35.928 45.106 36.376 45.01 36.888C44.914 37.4 44.866 37.912 44.866 38.424C44.866 38.872 44.898 39.304 44.962 39.72C45.058 40.104 45.218 40.44 45.442 40.728C45.666 41.016 45.954 41.224 46.306 41.352C46.658 41.448 47.122 41.432 47.698 41.304C48.146 41.208 48.706 40.872 49.378 40.296C50.05 39.688 50.738 38.984 51.442 38.184C52.146 37.384 52.818 36.552 53.458 35.688C54.13 34.824 54.674 34.056 55.09 33.384C55.442 32.456 55.746 31.544 56.002 30.648C56.258 29.752 56.418 28.936 56.482 28.2H56.818C57.202 28.008 57.698 28.024 58.306 28.248C58.946 28.44 59.538 28.744 60.082 29.16C60.658 29.576 61.122 30.072 61.474 30.648C61.826 31.192 61.922 31.736 61.762 32.28C61.698 32.472 61.602 32.696 61.474 32.952C61.378 33.176 61.282 33.416 61.186 33.672C60.93 34.248 60.674 34.856 60.418 35.496C60.162 36.136 59.922 36.776 59.698 37.416C59.506 38.056 59.33 38.68 59.17 39.288C59.042 39.864 58.978 40.376 58.978 40.824C58.978 41.496 59.026 41.88 59.122 41.976H59.554C60.418 41.688 61.25 41.192 62.05 40.488C62.85 39.784 63.618 38.984 64.354 38.088C65.09 37.16 65.778 36.184 66.418 35.16C67.09 34.136 67.714 33.16 68.29 32.232C68.45 32.008 68.578 31.8 68.674 31.608C68.802 31.384 68.93 31.16 69.058 30.936C69.154 30.776 69.346 30.696 69.634 30.696C69.922 30.664 70.194 30.696 70.45 30.792C70.738 30.888 70.962 31.016 71.122 31.176C71.282 31.336 71.298 31.528 71.17 31.752C70.978 32.04 70.786 32.344 70.594 32.664C70.434 32.952 70.258 33.256 70.066 33.576C69.074 35.208 67.986 36.856 66.802 38.52C65.618 40.152 64.242 41.64 62.674 42.984C62.45 43.176 62.162 43.4 61.81 43.656C61.458 43.912 61.058 44.152 60.61 44.376C60.162 44.6 59.65 44.792 59.074 44.952C58.53 45.08 57.922 45.128 57.25 45.096C55.682 44.968 54.546 44.488 53.842 43.656C53.138 42.824 52.786 41.832 52.786 40.68V40.008C52.178 40.648 51.538 41.256 50.866 41.832C50.226 42.408 49.554 42.92 48.85 43.368C48.178 43.816 47.49 44.184 46.786 44.472C46.082 44.728 45.378 44.856 44.674 44.856C43.522 44.76 42.546 44.488 41.746 44.04C40.978 43.592 40.37 43.08 39.922 42.504C39.474 41.896 39.154 41.256 38.962 40.584C38.77 39.88 38.674 39.208 38.674 38.568C38.674 38.312 38.69 38.056 38.722 37.8C38.722 37.544 38.738 37.32 38.77 37.128C38.898 36.104 39.202 34.984 39.682 33.768C40.194 32.552 40.818 31.336 41.554 30.12C42.322 28.904 43.202 27.736 44.194 26.616C45.218 25.464 46.322 24.456 47.506 23.592C48.69 22.696 49.922 21.992 51.202 21.48C52.514 20.936 53.858 20.664 55.234 20.664C56.098 20.664 56.914 20.76 57.682 20.952C58.386 21.144 58.962 21.464 59.41 21.912C59.89 22.36 60.258 22.888 60.514 23.496C60.77 24.072 60.93 24.696 60.994 25.368C61.09 26.04 61.122 26.712 61.09 27.384ZM80.0125 20.952C78.2205 24.536 76.5885 27.704 75.1165 30.456C73.6765 33.208 72.3485 35.688 71.1325 37.896L69.3085 41.256C70.2685 41.224 71.1805 40.952 72.0445 40.44C72.9085 39.896 73.7405 39.224 74.5405 38.424C75.3405 37.624 76.1085 36.744 76.8445 35.784C77.5805 34.792 78.2685 33.832 78.9085 32.904L80.3005 30.936C80.3965 30.776 80.5725 30.696 80.8285 30.696C81.1165 30.664 81.3885 30.696 81.6445 30.792C81.9325 30.888 82.1405 31.016 82.2685 31.176C82.4285 31.336 82.4445 31.528 82.3165 31.752C82.1565 32.008 82.0125 32.264 81.8845 32.52C81.7565 32.776 81.6125 33 81.4525 33.192C81.1965 33.64 80.9405 34.088 80.6845 34.536C80.4285 34.952 80.1405 35.384 79.8205 35.832C79.5325 36.248 79.1965 36.696 78.8125 37.176C78.4605 37.656 78.0445 38.184 77.5645 38.76C77.0845 39.304 76.5245 39.848 75.8845 40.392C75.2765 40.936 74.6205 41.416 73.9165 41.832C73.2125 42.248 72.4605 42.584 71.6605 42.84C70.8925 43.064 70.1085 43.144 69.3085 43.08C69.4685 43.4 69.5965 43.688 69.6925 43.944C69.7885 44.168 69.9005 44.456 70.0285 44.808C70.0285 44.84 70.0285 44.856 70.0285 44.856C70.0605 44.824 70.0765 44.824 70.0765 44.856C70.3005 45.656 70.4125 46.584 70.4125 47.64C70.4125 49.08 70.1885 50.584 69.7405 52.152C69.2925 53.72 68.7005 55.144 67.9645 56.424C67.2285 57.736 66.3965 58.808 65.4685 59.64C64.5085 60.472 63.5165 60.888 62.4925 60.888C61.3405 60.824 60.5085 60.44 59.9965 59.736C59.4525 59.032 59.1485 58.168 59.0845 57.144V57C59.1805 55.304 59.4685 53.576 59.9485 51.816C60.3965 50.088 60.9725 48.344 61.6765 46.584C62.3805 44.824 63.1645 43.064 64.0285 41.304C64.8925 39.512 65.7565 37.736 66.6205 35.976L67.9165 33.336L72.0925 24.648L74.9245 18.792C75.4365 17.704 75.9485 16.6 76.4605 15.48C77.0045 14.36 77.5005 13.272 77.9485 12.216C78.3965 11.128 78.7965 10.104 79.1485 9.144C79.5005 8.152 79.7885 7.24 80.0125 6.408C80.3965 6.216 80.9245 6.2 81.5965 6.36C82.2685 6.52 82.8925 6.792 83.4685 7.176C84.0765 7.56 84.5725 8.024 84.9565 8.568C85.3405 9.112 85.4365 9.656 85.2445 10.2C85.1165 10.584 84.8765 11.176 84.5245 11.976C84.1725 12.744 83.7405 13.624 83.2285 14.616C82.7485 15.608 82.2205 16.664 81.6445 17.784C81.1005 18.872 80.5565 19.928 80.0125 20.952ZM67.4845 48.744C67.4845 48.168 67.4525 47.592 67.3885 47.016C67.3565 46.472 67.2765 45.928 67.1485 45.384C66.5725 46.536 66.0765 47.64 65.6605 48.696C65.2125 49.784 64.8285 50.84 64.5085 51.864C64.1885 52.888 63.9165 53.928 63.6925 54.984C63.4685 56.072 63.3085 57.192 63.2125 58.344C63.2765 58.792 63.4525 58.936 63.7405 58.776C64.3165 58.36 64.8445 57.784 65.3245 57.048C65.7725 56.312 66.1565 55.496 66.4765 54.6C66.7965 53.736 67.0365 52.792 67.1965 51.768C67.3885 50.776 67.4845 49.768 67.4845 48.744ZM97.4534 27.336C96.0774 29.832 94.2374 31.928 91.9334 33.624C89.6294 35.288 87.0374 36.536 84.1574 37.368V37.752C84.1574 38.776 84.3494 39.784 84.7334 40.776C85.1494 41.736 85.7894 42.36 86.6534 42.648C87.2614 42.776 87.9974 42.728 88.8614 42.504C89.7254 42.248 90.6374 41.816 91.5974 41.208C92.5574 40.568 93.5494 39.752 94.5734 38.76C95.5974 37.736 96.5894 36.52 97.5494 35.112C98.0614 34.376 98.5254 33.656 98.9414 32.952C99.3574 32.248 99.7414 31.576 100.093 30.936C100.285 30.68 100.541 30.52 100.861 30.456C101.181 30.392 101.469 30.408 101.725 30.504C102.013 30.568 102.205 30.712 102.301 30.936C102.429 31.16 102.397 31.432 102.205 31.752L101.293 33.24C100.525 34.488 99.5814 35.896 98.4614 37.464C97.3414 39 95.9814 40.52 94.3814 42.024C93.4854 42.792 92.5894 43.384 91.6934 43.8C90.7974 44.216 89.9334 44.536 89.1014 44.76C88.3014 44.952 87.5654 45.064 86.8934 45.096C86.2214 45.128 85.6934 45.144 85.3094 45.144C82.9414 45.144 81.1014 44.568 79.7894 43.416C78.4774 42.264 77.7734 40.696 77.6774 38.712C77.6134 36.888 77.9494 35.096 78.6854 33.336C79.4214 31.544 80.6054 29.56 82.2374 27.384C82.7494 26.712 83.4374 25.976 84.3014 25.176C85.1974 24.376 86.1894 23.656 87.2774 23.016C88.3974 22.344 89.5814 21.8 90.8294 21.384C92.0774 20.968 93.3254 20.776 94.5734 20.808C95.7894 20.84 96.7654 21.16 97.5014 21.768C98.2374 22.376 98.6054 23.176 98.6054 24.168C98.6054 25.096 98.2214 26.152 97.4534 27.336ZM94.5734 23.256C93.3254 23.512 92.1254 24.12 90.9734 25.08C89.8534 26.008 88.8454 27.096 87.9494 28.344C87.0854 29.592 86.3334 30.888 85.6934 32.232C85.0854 33.576 84.6534 34.76 84.3974 35.784C86.7014 34.984 88.7814 33.8 90.6374 32.232C92.5254 30.632 94.0774 28.68 95.2934 26.376C95.5494 25.8 95.6774 25.224 95.6774 24.648C95.6774 24.168 95.5814 23.8 95.3894 23.544C95.2294 23.288 94.9574 23.192 94.5734 23.256ZM140.831 0.407999C142.879 0.247999 144.799 0.439999 146.591 0.983997C148.415 1.528 149.999 2.36 151.343 3.48C152.719 4.6 153.839 5.976 154.703 7.608C155.567 9.24 156.079 11.048 156.239 13.032C156.271 15.528 155.823 18.184 154.895 21C153.999 23.816 152.735 26.6 151.103 29.352C149.471 32.104 147.535 34.744 145.295 37.272C143.087 39.8 140.687 42.04 138.095 43.992C135.535 45.944 132.847 47.528 130.031 48.744C127.247 49.96 124.463 50.632 121.679 50.76C120.463 50.824 119.199 50.712 117.887 50.424C116.575 50.136 115.295 49.656 114.047 48.984C112.831 48.344 111.727 47.496 110.735 46.44C109.743 45.384 108.975 44.088 108.431 42.552C108.303 41.88 108.463 41.32 108.911 40.872C109.359 40.424 109.919 40.088 110.591 39.864C111.263 39.64 111.951 39.544 112.655 39.576C113.359 39.576 113.887 39.736 114.239 40.056C114.399 41.432 114.735 42.648 115.247 43.704C115.791 44.728 116.447 45.576 117.215 46.248C117.983 46.952 118.831 47.448 119.759 47.736C120.687 48.056 121.631 48.168 122.591 48.072C124.383 47.72 126.303 46.952 128.351 45.768C130.431 44.584 132.479 43.096 134.495 41.304C136.543 39.512 138.511 37.496 140.399 35.256C142.287 33.016 143.951 30.664 145.391 28.2C146.831 25.736 147.983 23.24 148.847 20.712C149.711 18.184 150.143 15.736 150.143 13.368C150.143 11.8 149.903 10.344 149.423 9C148.975 7.624 148.335 6.456 147.503 5.496C146.703 4.504 145.743 3.72 144.623 3.144C143.503 2.568 142.303 2.264 141.023 2.232C138.911 2.36 136.767 3.032 134.591 4.248C132.415 5.432 130.303 6.92 128.255 8.712C126.239 10.504 124.335 12.52 122.543 14.76C120.783 16.968 119.247 19.176 117.935 21.384C116.623 23.56 115.583 25.64 114.815 27.624C114.079 29.608 113.727 31.272 113.759 32.616C113.663 32.008 113.391 31.288 112.943 30.456C112.527 29.592 112.047 28.824 111.503 28.152C110.991 27.448 110.479 26.936 109.967 26.616C109.487 26.296 109.135 26.36 108.911 26.808C108.911 26.776 108.911 26.76 108.911 26.76C108.943 26.76 108.959 26.744 108.959 26.712C109.631 24.6 110.527 22.504 111.647 20.424C112.767 18.312 114.079 16.312 115.583 14.424C117.119 12.504 118.815 10.712 120.671 9.048C122.527 7.384 124.527 5.944 126.671 4.728C128.815 3.48 131.071 2.488 133.439 1.752C135.807 0.983997 138.271 0.535997 140.831 0.407999ZM132.815 6.264C132.911 6.104 133.119 6.056 133.439 6.12C133.759 6.152 134.127 6.264 134.543 6.456C134.991 6.648 135.439 6.904 135.887 7.224C136.335 7.544 136.719 7.896 137.039 8.28C137.391 8.664 137.647 9.08 137.807 9.528C137.967 9.944 137.983 10.344 137.855 10.728C136.223 13.48 134.639 16.312 133.103 19.224C131.567 22.136 130.111 25.064 128.735 28.008C127.391 30.92 126.127 33.8 124.943 36.648C123.791 39.496 122.735 42.232 121.775 44.856C121.647 45.112 121.375 45.128 120.959 44.904C120.543 44.648 120.111 44.296 119.663 43.848C119.215 43.368 118.815 42.856 118.463 42.312C118.143 41.768 118.015 41.352 118.079 41.064C118.687 38.632 119.535 35.912 120.623 32.904C121.743 29.864 122.975 26.776 124.319 23.64C125.663 20.504 127.071 17.432 128.543 14.424C130.047 11.416 131.471 8.696 132.815 6.264ZM108.863 26.856C108.831 27.016 108.799 27.16 108.767 27.288C108.735 27.416 108.719 27.544 108.719 27.672C108.719 27.512 108.735 27.368 108.767 27.24C108.799 27.08 108.831 26.952 108.863 26.856ZM173.871 27.384C173.871 27.608 173.727 27.784 173.439 27.912C173.183 28.04 172.895 28.12 172.575 28.152C172.255 28.152 171.967 28.088 171.711 27.96C171.455 27.832 171.327 27.64 171.327 27.384C171.327 27.256 171.311 27.144 171.279 27.048C171.247 26.92 171.231 26.792 171.231 26.664C171.199 26.312 171.151 25.928 171.087 25.512C171.023 25.064 170.911 24.664 170.751 24.312C170.591 23.928 170.351 23.608 170.031 23.352C169.743 23.096 169.359 22.952 168.879 22.92C168.047 22.888 167.231 23.08 166.431 23.496C165.663 23.88 164.911 24.408 164.175 25.08C163.439 25.752 162.751 26.52 162.111 27.384C161.471 28.248 160.879 29.16 160.335 30.12C159.823 31.048 159.375 31.992 158.991 32.952C158.607 33.88 158.303 34.744 158.079 35.544C157.983 35.928 157.887 36.376 157.791 36.888C157.695 37.4 157.647 37.912 157.647 38.424C157.647 38.872 157.679 39.304 157.743 39.72C157.839 40.104 157.999 40.44 158.223 40.728C158.447 41.016 158.735 41.224 159.087 41.352C159.439 41.448 159.903 41.432 160.479 41.304C160.927 41.208 161.487 40.872 162.159 40.296C162.831 39.688 163.519 38.984 164.223 38.184C164.927 37.384 165.599 36.552 166.239 35.688C166.911 34.824 167.455 34.056 167.871 33.384C168.223 32.456 168.527 31.544 168.783 30.648C169.039 29.752 169.199 28.936 169.263 28.2H169.599C169.983 28.008 170.479 28.024 171.087 28.248C171.727 28.44 172.319 28.744 172.863 29.16C173.439 29.576 173.903 30.072 174.255 30.648C174.607 31.192 174.703 31.736 174.543 32.28C174.479 32.472 174.383 32.696 174.255 32.952C174.159 33.176 174.063 33.416 173.967 33.672C173.711 34.248 173.455 34.856 173.199 35.496C172.943 36.136 172.703 36.776 172.479 37.416C172.287 38.056 172.111 38.68 171.951 39.288C171.823 39.864 171.759 40.376 171.759 40.824C171.759 41.496 171.807 41.88 171.903 41.976H172.335C173.199 41.688 174.031 41.192 174.831 40.488C175.631 39.784 176.399 38.984 177.135 38.088C177.871 37.16 178.559 36.184 179.199 35.16C179.871 34.136 180.495 33.16 181.071 32.232C181.231 32.008 181.359 31.8 181.455 31.608C181.583 31.384 181.711 31.16 181.839 30.936C181.935 30.776 182.127 30.696 182.415 30.696C182.703 30.664 182.975 30.696 183.231 30.792C183.519 30.888 183.743 31.016 183.903 31.176C184.063 31.336 184.079 31.528 183.951 31.752C183.759 32.04 183.567 32.344 183.375 32.664C183.215 32.952 183.039 33.256 182.847 33.576C181.855 35.208 180.767 36.856 179.583 38.52C178.399 40.152 177.023 41.64 175.455 42.984C175.231 43.176 174.943 43.4 174.591 43.656C174.239 43.912 173.839 44.152 173.391 44.376C172.943 44.6 172.431 44.792 171.855 44.952C171.311 45.08 170.703 45.128 170.031 45.096C168.463 44.968 167.327 44.488 166.623 43.656C165.919 42.824 165.567 41.832 165.567 40.68V40.008C164.959 40.648 164.319 41.256 163.647 41.832C163.007 42.408 162.335 42.92 161.631 43.368C160.959 43.816 160.271 44.184 159.567 44.472C158.863 44.728 158.159 44.856 157.455 44.856C156.303 44.76 155.327 44.488 154.527 44.04C153.759 43.592 153.151 43.08 152.703 42.504C152.255 41.896 151.935 41.256 151.743 40.584C151.551 39.88 151.455 39.208 151.455 38.568C151.455 38.312 151.471 38.056 151.503 37.8C151.503 37.544 151.519 37.32 151.551 37.128C151.679 36.104 151.983 34.984 152.463 33.768C152.975 32.552 153.599 31.336 154.335 30.12C155.103 28.904 155.983 27.736 156.975 26.616C157.999 25.464 159.103 24.456 160.287 23.592C161.471 22.696 162.703 21.992 163.983 21.48C165.295 20.936 166.639 20.664 168.015 20.664C168.879 20.664 169.695 20.76 170.463 20.952C171.167 21.144 171.743 21.464 172.191 21.912C172.671 22.36 173.039 22.888 173.295 23.496C173.551 24.072 173.711 24.696 173.775 25.368C173.871 26.04 173.903 26.712 173.871 27.384ZM182.954 21.048C182.666 21.144 182.41 21.16 182.186 21.096C181.962 21.032 181.786 20.936 181.658 20.808C181.53 20.648 181.482 20.488 181.514 20.328C181.546 20.136 181.674 19.96 181.898 19.8C184.17 18.328 186.49 17.112 188.858 16.152C190.618 12.376 191.866 9.128 192.602 6.408C192.986 6.216 193.514 6.2 194.186 6.36C194.858 6.52 195.498 6.792 196.106 7.176C196.714 7.56 197.21 8.024 197.594 8.568C197.978 9.112 198.074 9.656 197.882 10.2C197.754 10.52 197.546 11.016 197.258 11.688C196.97 12.328 196.618 13.064 196.202 13.896C198.602 13.416 201.018 13.176 203.45 13.176C203.77 13.176 204.154 13.192 204.602 13.224C205.082 13.224 205.482 13.24 205.802 13.272C205.898 13.528 205.898 13.816 205.802 14.136C205.706 14.456 205.546 14.76 205.322 15.048C205.13 15.304 204.89 15.528 204.602 15.72C204.314 15.88 204.026 15.928 203.738 15.864C203.354 15.832 202.986 15.816 202.634 15.816C202.282 15.784 201.93 15.768 201.578 15.768C200.458 15.768 199.338 15.832 198.218 15.96C197.13 16.088 196.026 16.28 194.906 16.536L192.65 20.952L192.362 21.528C192.074 22.072 191.674 22.84 191.162 23.832C190.682 24.792 190.154 25.88 189.578 27.096C189.002 28.28 188.41 29.528 187.802 30.84C187.226 32.152 186.698 33.432 186.218 34.68C185.738 35.896 185.338 37.032 185.018 38.088C184.73 39.144 184.586 40.008 184.586 40.68C184.586 41.384 184.666 41.816 184.826 41.976H185.21C186.074 41.656 186.906 41.16 187.706 40.488C188.506 39.784 189.258 39 189.962 38.136C190.698 37.24 191.386 36.296 192.026 35.304C192.698 34.312 193.306 33.352 193.85 32.424H193.802C193.962 32.168 194.122 31.928 194.282 31.704C194.442 31.448 194.602 31.192 194.762 30.936C194.858 30.776 195.034 30.696 195.29 30.696C195.578 30.664 195.85 30.696 196.106 30.792C196.362 30.888 196.57 31.016 196.73 31.176C196.89 31.336 196.922 31.528 196.826 31.752L195.626 33.72C195.146 34.488 194.634 35.288 194.09 36.12C193.578 36.952 193.018 37.784 192.41 38.616C191.802 39.416 191.162 40.2 190.49 40.968C189.818 41.704 189.114 42.376 188.378 42.984C188.154 43.176 187.866 43.4 187.514 43.656C187.162 43.912 186.746 44.152 186.266 44.376C185.818 44.568 185.306 44.744 184.73 44.904C184.154 45.032 183.546 45.096 182.906 45.096C181.594 45.032 180.634 44.584 180.026 43.752C179.45 42.92 179.162 41.896 179.162 40.68C179.162 40.424 179.178 40.12 179.21 39.768C179.242 39.416 179.29 39.096 179.354 38.808C179.578 37.368 179.914 35.928 180.362 34.488C180.842 33.048 181.37 31.624 181.946 30.216C182.554 28.776 183.21 27.352 183.914 25.944C184.618 24.536 185.338 23.128 186.074 21.72L187.466 18.936C186.73 19.256 185.994 19.592 185.258 19.944C184.522 20.264 183.786 20.632 183.05 21.048H182.954ZM211.828 27.336C210.452 29.832 208.612 31.928 206.308 33.624C204.004 35.288 201.412 36.536 198.532 37.368V37.752C198.532 38.776 198.724 39.784 199.108 40.776C199.524 41.736 200.164 42.36 201.028 42.648C201.636 42.776 202.372 42.728 203.236 42.504C204.1 42.248 205.012 41.816 205.972 41.208C206.932 40.568 207.924 39.752 208.948 38.76C209.972 37.736 210.964 36.52 211.924 35.112C212.436 34.376 212.9 33.656 213.316 32.952C213.732 32.248 214.116 31.576 214.468 30.936C214.66 30.68 214.916 30.52 215.236 30.456C215.556 30.392 215.844 30.408 216.1 30.504C216.388 30.568 216.58 30.712 216.676 30.936C216.804 31.16 216.772 31.432 216.58 31.752L215.668 33.24C214.9 34.488 213.956 35.896 212.836 37.464C211.716 39 210.356 40.52 208.756 42.024C207.86 42.792 206.964 43.384 206.068 43.8C205.172 44.216 204.308 44.536 203.476 44.76C202.676 44.952 201.94 45.064 201.268 45.096C200.596 45.128 200.068 45.144 199.684 45.144C197.316 45.144 195.476 44.568 194.164 43.416C192.852 42.264 192.148 40.696 192.052 38.712C191.988 36.888 192.324 35.096 193.06 33.336C193.796 31.544 194.98 29.56 196.612 27.384C197.124 26.712 197.812 25.976 198.676 25.176C199.572 24.376 200.564 23.656 201.652 23.016C202.772 22.344 203.956 21.8 205.204 21.384C206.452 20.968 207.7 20.776 208.948 20.808C210.164 20.84 211.14 21.16 211.876 21.768C212.612 22.376 212.98 23.176 212.98 24.168C212.98 25.096 212.596 26.152 211.828 27.336ZM208.948 23.256C207.7 23.512 206.5 24.12 205.348 25.08C204.228 26.008 203.22 27.096 202.324 28.344C201.46 29.592 200.708 30.888 200.068 32.232C199.46 33.576 199.028 34.76 198.772 35.784C201.076 34.984 203.156 33.8 205.012 32.232C206.9 30.632 208.452 28.68 209.668 26.376C209.924 25.8 210.052 25.224 210.052 24.648C210.052 24.168 209.956 23.8 209.764 23.544C209.604 23.288 209.332 23.192 208.948 23.256Z" fill="white"/>
</svg>
