<svg width="60" height="60" viewBox="0 0 60 60" fill="none" xmlns="http://www.w3.org/2000/svg">
<rect width="60" height="60" rx="10.9091" fill="#F28066" fill-opacity="0.2"/>
<mask id="mask0_203_619" style="mask-type:alpha" maskUnits="userSpaceOnUse" x="11" y="11" width="38" height="38">
<rect x="11.5908" y="11.5908" width="36.8182" height="36.8182" fill="#D9D9D9"/>
</mask>
<g mask="url(#mask0_203_619)">
<path d="M19.2611 43.8068C18.4173 43.8068 17.695 43.5064 17.0941 42.9055C16.4933 42.3047 16.1929 41.5824 16.1929 40.7386V19.2614C16.1929 18.4176 16.4933 17.6953 17.0941 17.0945C17.695 16.4936 18.4173 16.1932 19.2611 16.1932H31.5338C31.9684 16.1932 32.3328 16.3402 32.6268 16.6342C32.9209 16.9283 33.0679 17.2926 33.0679 17.7273C33.0679 18.1619 32.9209 18.5263 32.6268 18.8203C32.3328 19.1143 31.9684 19.2614 31.5338 19.2614H19.2611V40.7386H40.7383V28.4659C40.7383 28.0312 40.8853 27.6669 41.1794 27.3729C41.4734 27.0788 41.8378 26.9318 42.2724 26.9318C42.7071 26.9318 43.0714 27.0788 43.3655 27.3729C43.6595 27.6669 43.8065 28.0312 43.8065 28.4659V40.7386C43.8065 41.5824 43.5061 42.3047 42.9052 42.9055C42.3044 43.5064 41.5821 43.8068 40.7383 43.8068H19.2611ZM37.6701 22.3295H36.1361C35.7014 22.3295 35.337 22.1825 35.043 21.8885C34.749 21.5945 34.602 21.2301 34.602 20.7954C34.602 20.3608 34.749 19.9964 35.043 19.7024C35.337 19.4084 35.7014 19.2614 36.1361 19.2614H37.6701V17.7273C37.6701 17.2926 37.8172 16.9283 38.1112 16.6342C38.4052 16.3402 38.7696 16.1932 39.2042 16.1932C39.6389 16.1932 40.0032 16.3402 40.2973 16.6342C40.5913 16.9283 40.7383 17.2926 40.7383 17.7273V19.2614H42.2724C42.7071 19.2614 43.0714 19.4084 43.3655 19.7024C43.6595 19.9964 43.8065 20.3608 43.8065 20.7954C43.8065 21.2301 43.6595 21.5945 43.3655 21.8885C43.0714 22.1825 42.7071 22.3295 42.2724 22.3295H40.7383V23.8636C40.7383 24.2983 40.5913 24.6626 40.2973 24.9567C40.0032 25.2507 39.6389 25.3977 39.2042 25.3977C38.7696 25.3977 38.4052 25.2507 38.1112 24.9567C37.8172 24.6626 37.6701 24.2983 37.6701 23.8636V22.3295ZM28.8491 36.1364L26.0111 32.3395C25.8576 32.1349 25.6531 32.0327 25.3974 32.0327C25.1417 32.0327 24.9372 32.1349 24.7838 32.3395L21.7156 36.4432C21.5111 36.6989 21.4855 36.9673 21.6389 37.2486C21.7923 37.5298 22.0224 37.6704 22.3292 37.6704H37.6701C37.977 37.6704 38.2071 37.5298 38.3605 37.2486C38.5139 36.9673 38.4883 36.6989 38.2838 36.4432L34.065 30.8054C33.9116 30.6008 33.7071 30.4986 33.4514 30.4986C33.1957 30.4986 32.9912 30.6008 32.8378 30.8054L28.8491 36.1364Z" fill="#F2522E" fill-opacity="0.5"/>
</g>
</svg>
