<svg width="208" height="208" viewBox="0 0 208 208" fill="none" xmlns="http://www.w3.org/2000/svg">
<mask id="mask0_53_2007" style="mask-type:alpha" maskUnits="userSpaceOnUse" x="0" y="0" width="208" height="208">
<rect width="208" height="208" fill="#D9D9D9"/>
</mask>
<g mask="url(#mask0_53_2007)">
<path d="M92.95 116.267L78.4498 101.9C77.2499 100.7 75.9444 100.086 74.5333 100.058C73.1222 100.031 71.8167 100.617 70.6168 101.817C69.3612 103.072 68.7334 104.414 68.7334 105.842C68.7334 107.269 69.3612 108.611 70.6168 109.866L88.1168 127.366C89.539 128.789 91.1501 129.5 92.95 129.5C94.7499 129.5 96.361 128.789 97.7832 127.366L137.383 87.7665C138.528 86.6222 139.128 85.2945 139.183 83.7833C139.239 82.2722 138.639 80.9168 137.383 79.7169C136.183 78.5168 134.892 77.9307 133.508 77.9584C132.125 77.9863 130.833 78.6002 129.633 79.8001L92.95 116.267ZM73.9667 181.633L61.7669 161.7L39.1003 156.616C37.3002 156.239 35.8919 155.361 34.8753 153.983C33.8587 152.605 33.467 151.016 33.7003 149.216L35.7004 125.9L20.2837 108.7C19.0949 107.278 18.5005 105.711 18.5005 104C18.5005 102.289 19.0949 100.722 20.2837 99.3001L35.7004 82.1002L33.7003 58.7836C33.467 56.9836 33.8587 55.3947 34.8753 54.017C35.8919 52.6391 37.3002 51.7613 39.1003 51.3836L61.7669 46.3004L73.9667 26.367C74.8668 24.9448 76.1085 23.9226 77.6919 23.3003C79.2751 22.6782 80.9223 22.7005 82.6334 23.3671L104 32.617L125.367 23.3671C127.078 22.7005 128.725 22.6782 130.308 23.3003C131.891 23.9226 133.133 24.9448 134.033 26.367L146.233 46.3004L168.9 51.3836C170.7 51.7613 172.108 52.6391 173.125 54.017C174.141 55.3947 174.533 56.9836 174.3 58.7836L172.3 82.1002L187.716 99.3001C188.905 100.722 189.5 102.289 189.5 104C189.5 105.711 188.905 107.278 187.716 108.7L172.3 125.9L174.3 149.216C174.533 151.016 174.141 152.605 173.125 153.983C172.108 155.361 170.7 156.239 168.9 156.616L146.233 161.7L134.033 181.633C133.133 183.055 131.891 184.077 130.308 184.7C128.725 185.322 127.078 185.3 125.367 184.633L104 175.383L82.6334 184.633C80.9223 185.3 79.2751 185.322 77.6919 184.7C76.1085 184.077 74.8668 183.055 73.9667 181.633Z" fill="#008B6A"/>
</g>
</svg>
